<?xml version="1.0" encoding="utf-8"?>
<!-- Generator: Adobe Illustrator 23.0.0, SVG Export Plug-In . SVG Version: 6.00 Build 0)  -->
<svg version="1.1" id="Capa_1" xmlns="http://www.w3.org/2000/svg" xmlns:xlink="http://www.w3.org/1999/xlink" x="0px" y="0px"
	 viewBox="0 0 20 20" style="enable-background:new 0 0 20 20;" xml:space="preserve">
<style type="text/css">
	.st0{fill:#B8C1AD;stroke:#56393C;stroke-linecap:round;stroke-linejoin:round;stroke-miterlimit:10;}
	.st1{fill:#CFD6D8;stroke:#56393C;stroke-linecap:round;stroke-linejoin:round;stroke-miterlimit:10;}
	.st2{fill:#FDF9EF;stroke:#56393C;stroke-linecap:round;stroke-linejoin:round;stroke-miterlimit:10;}
	.st3{fill:#56393C;}
</style>
<g>
	<path class="st0" d="M15.9,10.8l-1.2,7.1c-0.1,0.3-0.3,0.5-0.6,0.5H5.9c-0.3,0-0.6-0.2-0.6-0.5l-1.2-7.1L10,4.1L15.9,10.8z"/>
	<path class="st1" d="M16.7,11.7L10,4.1l-6.7,7.6c-0.1,0.1-0.3,0.1-0.4,0l-1-0.8c-0.1-0.1-0.2-0.3,0-0.4l7.7-8.7
		c0.2-0.3,0.7-0.3,0.9,0l7.7,8.7c0.1,0.1,0.1,0.3,0,0.4l-1,0.8C17,11.8,16.8,11.8,16.7,11.7z"/>
	<circle class="st2" cx="10" cy="11.6" r="2.2"/>
	<circle class="st3" cx="10" cy="15.7" r="0.6"/>
</g>
</svg>
